<svg width="165" height="40" viewBox="0 0 165 40" fill="none" xmlns="http://www.w3.org/2000/svg">
<path d="M4.87114 27.9123C4.87114 33.8996 7.76531 35.6732 11.6566 35.6732C15.979 35.6732 18.1436 33.8196 18.1436 27.9123V8.86408H23.2619V27.6745C23.2619 35.8813 17.8395 39.2512 11.5274 39.2512C5.56295 39.2512 -0.00012207 36.2712 -0.00012207 27.9844V15.1201L4.87114 15.1476V27.9123Z" fill="white"/>
<path d="M32.1629 8.86522V26.8843C32.1629 32.8716 37.1885 35.3233 41.0798 35.3233C45.4022 35.3233 51.298 33.0249 51.298 27.1176L51.6136 0.544051H56.7319L56.4163 26.8809C56.4163 35.0877 47.4673 39.6319 41.1564 39.6319C35.192 39.6319 27.2905 35.2455 27.2905 26.9586V8.86637H32.1617L32.1629 8.86522Z" fill="white"/>
<path d="M79.5535 26.2887L79.557 39.9248H74.234L74.2454 39.6229C74.2454 39.544 74.4982 31.6448 73.987 26.9931C73.9195 26.3824 73.62 25.8804 73.0711 25.4528C70.034 23.088 60.8849 24.3287 60.7912 24.3402L60.4561 24.387V19.0961H70.3301C70.4971 19.0904 74.6285 18.8766 74.5668 12.4673C74.4879 9.93221 73.6039 7.97455 71.9402 6.65496C67.9906 3.51837 60.8781 4.90657 60.8072 4.92029L60.455 4.99119V0.275443L60.7225 0.251427C69.54 -0.570742 72.7978 0.832324 73.7892 1.47153C77.3546 3.77795 79.4403 6.65954 79.9892 10.0397C80.8377 15.2837 77.7651 20.0841 76.7554 21.4929C79.1613 22.0715 79.5375 26.1057 79.5512 26.2875L79.5535 26.2887Z" fill="white"/>
<path d="M164.158 35.2444C164.158 37.0637 162.676 38.5457 160.857 38.5457C159.038 38.5457 157.556 37.0637 157.556 35.2444C157.556 33.4251 159.038 31.9432 160.857 31.9432C162.676 31.9432 164.158 33.4217 164.158 35.2444Z" fill="white"/>
<path d="M130.018 39.6079C129.752 39.9601 129.276 39.943 128.554 39.9155C128.185 39.9007 127.721 39.8835 127.184 39.9155H125.781C125.088 39.9155 124.481 39.4227 124.344 38.7423L119.725 16.3654C119.591 15.7582 119.086 15.5432 118.695 15.5432C118.304 15.5432 117.8 15.757 117.663 16.3677L112.724 38.6039C112.553 39.3758 111.882 39.9155 111.09 39.9155H110.221C109.994 39.919 109.766 39.9304 109.546 39.9395C109.265 39.951 108.995 39.9635 108.742 39.9635C108.09 39.9635 107.556 39.8847 107.26 39.5325C107.049 39.2832 106.993 38.9275 107.093 38.4816L116.093 2.78872C116.394 1.41882 117.56 0.802484 118.575 0.802484C119.591 0.802484 120.756 1.41883 121.06 2.79787L129.654 36.8064C130.171 38.4381 130.335 39.1917 130.018 39.6091V39.6079Z" fill="white"/>
<path d="M105.792 27.4353C105.792 31.6811 104.309 36.2048 100.301 38.3831C97.4641 39.9234 94.1777 39.6238 91.0263 39.6501C90.753 39.6535 90.4808 39.6558 90.2133 39.6592C89.6061 39.6684 88.9955 39.6707 88.3848 39.6707C86.9006 39.6707 85.4129 39.6467 83.9424 39.6032L83.517 39.5918L83.5399 36.1247C83.5399 35.3975 84.1322 34.804 84.8606 34.804C85.3512 34.7743 85.9057 34.748 86.4889 34.7194C92.2841 34.4461 100.144 35.9761 100.144 28.6726C100.144 25.4159 98.3904 20.9518 95.7466 19.8837C95.7295 19.878 95.7146 19.8723 95.6963 19.8632C93.8656 19.1153 91.8107 18.9415 89.7216 18.9415C88.8113 18.9415 87.8966 18.9735 86.9932 19.0055C86.1276 19.0353 85.2322 19.0673 84.3792 19.0673C83.5261 19.0673 82.8275 18.3721 82.8275 17.5156V16.1891C82.8275 15.3327 83.5227 14.634 84.3792 14.634L90.7233 14.6374C90.7496 14.6374 93.4642 14.8924 95.0548 13.3933C95.885 12.61 96.2749 11.4654 96.2166 9.98685C96.0176 5.07213 90.2339 5.1922 86.0075 5.28025C85.5032 5.29168 85.0241 5.30083 84.5907 5.30083C83.6199 5.30083 82.8275 4.50839 82.8275 3.53757V1.86807C82.8275 0.897252 83.6199 0.104816 84.5907 0.104816H93.805C94.1332 0.078516 97.487 -0.121596 99.9489 2.22599C101.748 3.94008 102.587 6.55066 102.443 9.98685C102.331 12.6157 101.763 14.873 100.791 16.5573C104.473 18.0564 105.792 22.3091 105.792 27.4388V27.4353Z" fill="white"/>
<path d="M151.15 3.20252V38.9663C151.15 39.5369 150.748 40 150.253 40H148.219C147.691 40 147.205 39.6707 146.946 39.1401L133.502 11.4802V25.6458C133.502 26.1592 133.137 26.572 132.693 26.564L130.578 26.5228C130.185 26.5148 129.869 26.1455 129.869 25.6915V3.22082C129.869 2.71997 130.221 2.31403 130.656 2.31403H132.988C133.305 2.31403 133.598 2.51185 133.754 2.83088L147.043 30.1568C147.17 30.4187 147.517 30.3146 147.517 30.0139V3.17165C147.517 2.6971 147.851 2.31289 148.261 2.31289H150.378C150.803 2.31289 151.148 2.71082 151.148 3.20252H151.15Z" fill="white"/>
</svg>
